<svg xmlns="http://www.w3.org/2000/svg" viewBox="0 0 512 512" role="img" aria-labelledby="title desc">
  <title id="title">Traefik Proxy Admin logo</title>
  <desc id="desc">A hexagonal proxy route mark with connected service nodes.</desc>
  <defs>
    <linearGradient id="bg" x1="72" y1="64" x2="440" y2="448" gradientUnits="userSpaceOnUse">
      <stop offset="0" stop-color="#102033"/>
      <stop offset="1" stop-color="#07111f"/>
    </linearGradient>
    <linearGradient id="route" x1="132" y1="142" x2="384" y2="364" gradientUnits="userSpaceOnUse">
      <stop offset="0" stop-color="#38bdf8"/>
      <stop offset="0.58" stop-color="#2563eb"/>
      <stop offset="1" stop-color="#22c55e"/>
    </linearGradient>
    <filter id="softShadow" x="-20%" y="-20%" width="140%" height="140%" color-interpolation-filters="sRGB">
      <feDropShadow dx="0" dy="18" stdDeviation="18" flood-color="#020617" flood-opacity="0.35"/>
    </filter>
  </defs>
  <rect width="512" height="512" rx="112" fill="url(#bg)"/>
  <path d="M256 58 426 156v200L256 454 86 356V156L256 58Z" fill="#0b1625" stroke="#38bdf8" stroke-width="18" stroke-linejoin="round" filter="url(#softShadow)"/>
  <path d="M256 122 370 188v136l-114 66-114-66V188l114-66Z" fill="#101d2e" stroke="#1d4ed8" stroke-width="10" stroke-linejoin="round" opacity="0.92"/>
  <path d="M164 256h74m36 0h74M256 178v60m0 36v60m-53-90 39-39m28 28 39-39m-106 74 39 39m28-28 39 39" fill="none" stroke="url(#route)" stroke-width="20" stroke-linecap="round" stroke-linejoin="round"/>
  <circle cx="164" cy="256" r="32" fill="#07111f" stroke="#38bdf8" stroke-width="16"/>
  <circle cx="256" cy="178" r="32" fill="#07111f" stroke="#60a5fa" stroke-width="16"/>
  <circle cx="348" cy="256" r="32" fill="#07111f" stroke="#2563eb" stroke-width="16"/>
  <circle cx="256" cy="334" r="32" fill="#07111f" stroke="#22c55e" stroke-width="16"/>
  <circle cx="256" cy="256" r="38" fill="#e0f2fe" stroke="#38bdf8" stroke-width="12"/>
  <path d="M238 257 252 271l28-34" fill="none" stroke="#0f172a" stroke-width="16" stroke-linecap="round" stroke-linejoin="round"/>
</svg>
